<?xml version="1.0" encoding="UTF-8"?>
<svg width="100px" height="39px" viewBox="0 0 100 39" version="1.1" xmlns="http://www.w3.org/2000/svg" xmlns:xlink="http://www.w3.org/1999/xlink">
    <title>952FB843-5692-402C-9784-6DF60EAB9E4E</title>
    <g id="Page-1" stroke="none" stroke-width="1" fill="none" fill-rule="evenodd">
        <g id="Export-Logo" transform="translate(-159.000000, -460.000000)" fill="#53555A" fill-rule="nonzero">
            <g id="Header" transform="translate(82.000000, 441.000000)">
                <g id="emaar-misr-logo-en" transform="translate(77.000000, 19.000000)">
                    <path d="M59.0164677,34.2408306 C59.1153355,34.2618663 59.222918,34.2759903 59.3398165,34.2832112 C59.4561138,34.2901143 59.5853332,34.2937204 59.7262723,34.2937204 C59.9456446,34.2937204 60.1734312,34.2690786 60.4102332,34.2191939 C60.647035,34.1702108 60.8640032,34.0836639 61.0623398,33.9595533 C61.2597749,33.8360437 61.4241538,33.6704626 61.5548756,33.4616082 C61.6858981,33.2533548 61.7511087,32.990108 61.7511087,32.6718679 C61.7511087,32.3959997 61.700022,32.1685137 61.5975482,31.9885082 C61.4947736,31.8079017 61.3625492,31.6651594 61.200274,31.5590794 C61.0373975,31.4529994 60.8606975,31.3805764 60.6701743,31.3418107 C60.4790498,31.3027444 60.2915317,31.2832112 60.1082206,31.2832112 C59.8609008,31.2832112 59.6556524,31.2886204 59.493377,31.2994387 C59.3308012,31.3096561 59.192867,31.3222775 59.0801758,31.3364015 C59.0657513,31.7249609 59.0516273,32.1102147 59.0375035,32.4918624 C59.0233794,32.8732112 59.0164677,33.2551578 59.0164677,33.6362045 L59.0164677,34.2408306 Z M58.1470922,33.6362045 C58.1470922,33.1701135 58.1380769,32.7124368 58.1209479,32.2637753 C58.1029174,31.8154144 58.0836846,31.3574372 58.0623485,30.8913462 C58.2675969,30.9051696 58.4686379,30.9174905 58.666674,30.9286094 C58.8644096,30.9388267 59.0657513,30.9442359 59.2706991,30.9442359 C59.4753466,30.9442359 59.6769887,30.9355211 59.8750247,30.9174905 C60.0727603,30.9003615 60.2744026,30.8913462 60.4790498,30.8913462 C60.7759537,30.8913462 61.0584331,30.9192936 61.3270891,30.97609 C61.5954445,31.0325859 61.8304434,31.126345 62.031785,31.2567663 C62.2334273,31.3877887 62.3923971,31.5590794 62.5086944,31.7709389 C62.6255928,31.9827985 62.6838917,32.2478483 62.6838917,32.5660884 C62.6838917,32.9050637 62.6078627,33.1965584 62.4558047,33.4405725 C62.3037466,33.6842861 62.1183319,33.8853273 61.8995607,34.0445976 C61.6801884,34.2035674 61.4451895,34.3273775 61.1945643,34.4154269 C60.9436383,34.5040774 60.7155512,34.5620758 60.5112045,34.5903238 C60.5956477,34.6964038 60.7125461,34.8448557 60.8606975,35.0359801 C61.0091495,35.2262029 61.1753315,35.4365599 61.3589431,35.6661496 C61.5422542,35.8960397 61.7333787,36.1364477 61.9311142,36.3873736 C62.1291503,36.6382994 62.3196736,36.8781064 62.5035858,37.107696 C62.6871974,37.3375862 62.8602912,37.5476427 63.0231675,37.738767 C63.185443,37.9289899 63.3161648,38.0738357 63.4153332,38.173004 C63.3089525,38.15888 63.203173,38.1519683 63.097093,38.1519683 L62.7791534,38.1519683 L62.4720323,38.1519683 C62.3659521,38.1519683 62.2634782,38.15888 62.16431,38.173004 C62.0582299,38.0248525 61.8977576,37.8021746 61.6819914,37.5049702 C61.4665258,37.2086674 61.2282213,36.8904273 60.9664772,36.550851 C60.7053339,36.2121762 60.4381805,35.8747035 60.1665194,35.5390338 C59.8942575,35.2033642 59.6454351,34.9190817 59.4194516,34.6855854 L59.0164677,34.6855854 L59.0164677,35.4596992 C59.0164677,35.9257902 59.0248821,36.3855705 59.0429126,36.837838 C59.0603421,37.2898051 59.0801758,37.7348604 59.1012116,38.173004 C58.9386356,38.15888 58.7655418,38.1519683 58.5816297,38.1519683 C58.3977176,38.1519683 58.2246238,38.15888 58.0623485,38.173004 C58.0836846,37.7348604 58.1029174,37.2898051 58.1209479,36.837838 C58.1380769,36.3855705 58.1470922,35.9257902 58.1470922,35.4596992 L58.1470922,33.6362045 Z" id="Fill-7"></path>
                    <path d="M51.760804,37.181952 C51.8563662,37.3129744 51.9726636,37.4307743 52.1111987,37.5371548 C52.2485318,37.6429343 52.4090041,37.7294812 52.5932167,37.7964949 C52.7768283,37.8641097 52.9814757,37.8974663 53.2077597,37.8974663 C53.4409554,37.8974663 53.6513124,37.8568975 53.8385302,37.7754592 C54.0254474,37.6943215 54.1844172,37.5846354 54.3154395,37.4470018 C54.4464619,37.3093682 54.5468322,37.1464918 54.6177526,36.9592741 C54.6880719,36.7723569 54.7235321,36.5728182 54.7235321,36.3606582 C54.7235321,36.0358069 54.6402909,35.7776688 54.4744093,35.5865444 C54.3085278,35.3960211 54.1017769,35.2367508 53.8541567,35.109635 C53.6071375,34.9828198 53.3402846,34.8659214 53.0541991,34.7598414 C52.767813,34.6540619 52.5012607,34.5212365 52.2539409,34.3625672 C52.0066212,34.2035974 51.7998703,34.0004526 51.6339888,33.7531416 C51.4675063,33.5061137 51.384866,33.1737496 51.384866,32.7566417 C51.384866,32.4600384 51.4380563,32.1895794 51.5438358,31.9455652 C51.6499158,31.7018516 51.8034765,31.4917951 52.0048182,31.3153958 C52.2061599,31.1389964 52.4480704,31.0010623 52.7311508,30.9021945 C53.0136302,30.8027257 53.3318703,30.7531416 53.6846691,30.7531416 C54.0239448,30.7531416 54.3172426,30.7943114 54.5645623,30.8754491 C54.8118821,30.9565868 55.0417722,31.0818995 55.2536318,31.2513871 C55.1899236,31.3718917 55.1367334,31.4990074 55.094662,31.6330348 C55.0522901,31.7670623 55.0099182,31.937151 54.9672457,32.1420988 L54.8404305,32.1420988 C54.8049703,32.0429305 54.7568887,31.9353479 54.6970872,31.8184495 C54.6366847,31.7018516 54.555547,31.5942691 54.4533736,31.4951008 C54.3508997,31.396233 54.2288927,31.3135927 54.087653,31.2462785 C53.9458122,31.1792647 53.7763246,31.1453071 53.5788895,31.1453071 C53.381154,31.1453071 53.1990449,31.1774617 53.0325624,31.2408693 C52.8672819,31.3042769 52.7221355,31.3947304 52.5983254,31.5113283 C52.4745153,31.6279262 52.3795541,31.7670623 52.3122399,31.9299387 C52.2452262,32.0925146 52.2112685,32.268914 52.2112685,32.4600384 C52.2112685,32.7921019 52.2945098,33.0532451 52.4603913,33.244069 C52.6265733,33.4348928 52.8330237,33.5956657 53.0809445,33.7263875 C53.3279637,33.8574099 53.5951171,33.9740077 53.8809021,34.0764817 C54.1672881,34.1786551 54.4338405,34.3042682 54.6814607,34.4527202 C54.9281794,34.6008716 55.1352308,34.791996 55.3011123,35.0248912 C55.4672944,35.258087 55.5499346,35.5691148 55.5499346,35.9579748 C55.5499346,36.2828261 55.4922367,36.5899473 55.3753383,36.8799394 C55.2587404,37.1696311 55.0892528,37.42236 54.8668754,37.6375252 C54.6441975,37.8529908 54.3716349,38.0191729 54.0503897,38.1360712 C53.7291445,38.2526691 53.3631234,38.3106676 52.9532277,38.3106676 C52.5153846,38.3106676 52.1598813,38.2526691 51.8885208,38.1360712 C51.6159582,38.0191729 51.3881716,37.8869485 51.2042595,37.738797 C51.2679676,37.5759206 51.3121426,37.4292717 51.3367844,37.2985499 C51.3617268,37.167828 51.384866,37.0001434 51.4059017,36.7948951 L51.5330175,36.7948951 C51.5895133,36.9220108 51.6655424,37.0512301 51.760804,37.181952" id="Fill-5"></path>
                    <path d="M47.7122732,32.2637453 C47.6939421,31.8153844 47.67501,31.3574071 47.6536738,30.8913162 C47.7453293,30.9051396 47.8339798,30.917761 47.9187236,30.9285794 C48.0037679,30.9387967 48.0882112,30.9442059 48.1732556,30.9442059 C48.2579994,30.9442059 48.3424427,30.9387967 48.4277875,30.9285794 C48.5122308,30.917761 48.6008813,30.9051396 48.6928373,30.8913162 C48.6712006,31.3574071 48.6516675,31.8153844 48.6339374,32.2637453 C48.6165078,32.7124068 48.6074925,33.1700835 48.6074925,33.6361745 L48.6074925,35.4596692 C48.6074925,35.9260607 48.6165078,36.3855405 48.6339374,36.837808 C48.6516675,37.2897751 48.6712006,37.7348304 48.6928373,38.172974 C48.5296604,38.15885 48.3565667,38.1519383 48.1732556,38.1519383 C47.9893434,38.1519383 47.8162497,38.15885 47.6536738,38.172974 C47.67501,37.7348304 47.6939421,37.2897751 47.7122732,36.837808 C47.7297028,36.3855405 47.7387181,35.9260607 47.7387181,35.4596692 L47.7387181,33.6361745 C47.7387181,33.1700835 47.7297028,32.7124068 47.7122732,32.2637453" id="Fill-3"></path>
                    <path d="M39.3599284,33.6788468 C39.858174,34.6257538 40.3789578,35.5973027 40.9234819,36.5937938 C40.9941018,36.4597664 41.0962752,36.2668389 41.2309036,36.0162136 C41.3652316,35.7652877 41.5202948,35.4770987 41.6972952,35.1519468 C41.8736945,34.8270955 42.0627153,34.4754988 42.2643575,34.0977578 C42.4656992,33.7197162 42.6703465,33.3359649 42.8789005,32.947105 C43.0874544,32.558846 43.2936043,32.1771983 43.4991531,31.8030634 C43.7038004,31.4283274 43.8949248,31.0785338 44.0713242,30.753382 L44.2092582,30.753382 C44.2867898,31.4319335 44.3595132,32.0873459 44.426527,32.7196189 C44.4935407,33.3521924 44.5623575,33.9739476 44.6329773,34.5854855 C44.7038977,35.1964223 44.7745176,35.8004474 44.8451374,36.3975608 C44.9160578,36.9949747 44.9938899,37.5866789 45.0783332,38.1729739 C44.9938899,38.1588499 44.9100476,38.1519382 44.8289099,38.1519382 L44.5800876,38.1519382 L44.3312653,38.1519382 C44.2495266,38.1519382 44.1665858,38.1588499 44.0821425,38.1729739 C44.0043104,37.2332791 43.9264783,36.3218323 43.8486462,35.4380324 C43.7708142,34.555134 43.6755525,33.654205 43.5628612,32.7352454 L43.5412245,32.7352454 C43.0537973,33.6259571 42.5750849,34.510959 42.1053877,35.3905518 C41.6350896,36.2704451 41.1882312,37.1909072 40.7642116,38.1519382 L40.6686494,38.1519382 C40.2446298,37.261527 39.8016781,36.3693129 39.3388927,35.4755961 C38.8761073,34.5815789 38.4115188,33.668329 37.9451273,32.7352454 L37.9237911,32.7352454 C37.8739064,33.1736895 37.8195141,33.6484953 37.7597126,34.1611654 C37.6993101,34.6735349 37.6446173,35.1783917 37.5947326,35.6766373 C37.545449,36.1751834 37.5030771,36.645181 37.4682179,37.0866302 C37.4324572,37.5283799 37.4153282,37.8904945 37.4153282,38.1729739 C37.3017354,38.1588499 37.1785263,38.1519382 37.0441983,38.1519382 C36.9095698,38.1519382 36.7860602,38.1588499 36.673369,38.1729739 C36.764724,37.6008028 36.8602862,36.9964772 36.9588535,36.3605981 C37.0583223,35.7247189 37.153584,35.0849331 37.24554,34.4418417 C37.3374961,33.7987503 37.4219394,33.1646742 37.4997715,32.5396134 C37.5776036,31.9139516 37.6446173,31.3186413 37.7008127,30.753382 L37.8814192,30.753382 C38.3691469,31.7567849 38.8619833,32.7322403 39.3599284,33.6788468" id="Fill-1"></path>
                    <path d="M90.1307022,10.6688262 L90.9565036,10.586186 C93.7341176,10.1774924 96.1006338,8.56315265 96.1006338,5.56796948 C96.1006338,-0.106260336 89.2763522,0.156385404 86.386047,0.156385404 L82.1548662,0.156385404 C82.7369541,1.47592481 82.6999914,2.31494873 82.6999914,3.26215625 L82.6999914,16.7842047 C82.6999914,17.7644683 82.7369541,18.5316704 82.1548662,19.8920791 L86.4668842,19.8920791 C85.9148474,18.5316704 85.9148474,17.7644683 85.9148474,16.7842047 L85.9148474,10.7099961 C86.3277481,10.7340369 86.9687359,10.8686654 87.8747736,11.940284 C91.0517653,15.7219019 93.5883702,18.1079513 95.5485969,19.9053016 L99.5300539,19.9053016 C99.1390904,19.5227524 90.1307022,10.6688262 90.1307022,10.6688262 M85.9139458,9.730634 L85.9139458,1.32026063 C92.1050529,1.07203937 92.7400305,4.15196636 92.8073447,5.56676744 C92.8662447,7.03355675 92.2529038,8.77050455 90.4318132,9.46558418 L90.440528,9.4571699 C90.440528,9.4571699 90.4101765,9.46768775 90.351577,9.49413263 C89.3776241,9.91755122 85.9139458,9.730634 85.9139458,9.730634" id="Fill-13"></path>
                    <path d="M78.9859883,16.6714233 L71.5123046,0.167414121 L70.6558511,0.167414121 L63.0625644,17.1453275 C62.4867873,18.4101741 62.2130226,18.8768663 61.4019462,19.8919889 L61.4148681,19.8919889 L63.681615,19.8919889 L63.9556801,19.8919889 L67.1678315,12.6683296 L73.7204521,12.6683296 L76.9755764,19.8919889 L81.3047235,19.8919889 C80.1594798,18.7882157 79.7835418,18.2839599 78.9859883,16.6714233 L78.9859883,16.6714233 Z M67.8001046,11.2928953 L70.4190492,5.40079577 L73.0902826,11.2928953 L67.8001046,11.2928953 Z" id="Fill-15"></path>
                    <path d="M58.4920477,16.6714233 L51.0180635,0.167414121 L50.1595064,0.167414121 L42.5683233,17.1453275 C41.9925462,18.4101741 41.7187816,18.8768663 40.905902,19.8919889 L40.920627,19.8919889 L43.1876744,19.8919889 L43.4614391,19.8919889 L46.675694,12.6683296 L53.226211,12.6683296 L56.4819363,19.8919889 L60.8107829,19.8919889 C59.6655393,18.7882157 59.2893008,18.2839599 58.4920477,16.6714233 L58.4920477,16.6714233 Z M47.306164,11.2928953 L49.9272122,5.40079577 L52.595741,11.2928953 L47.306164,11.2928953 Z" id="Fill-17"></path>
                    <path d="M35.876747,19.8923495 C36.0678713,18.9183967 36.0678713,17.5495736 35.9137097,16.4301739 L34.659381,7.13750316 L27.8203744,19.8836349 L26.5140574,19.8836349 L19.5575514,6.56142549 L18.207961,16.6366243 C18.0598096,17.7974943 18.0168366,19.270895 18.1403463,19.8923495 L15.6932933,19.8923495 C16.1647935,18.8817344 16.2822929,18.4468966 16.5040693,16.7889828 L18.7164239,0.167474223 L19.8445385,0.167474223 L27.9595105,15.6779973 L36.0678713,0.167474223 L36.91561,0.167474223 L39.2018901,16.7541237 C39.4299772,18.4081308 39.5997654,18.8817344 40.0559395,19.8923495 L35.876747,19.8923495 Z" id="Fill-9"></path>
                    <path d="M14.6415083,17.9255417 L14.346107,19.8923797 L0.238965552,19.8923797 C0.821654442,18.5319709 0.784691712,17.7647689 0.784691712,16.7845052 L0.784691712,3.27297461 C0.784691712,2.32576709 0.821654442,1.48674317 0.238965552,0.167203764 L4.46804278,0.167203764 L14.0068312,0.167203764 L14.030872,2.16920138 C13.7724334,2.06282084 13.565983,1.97356937 13.3748587,1.88852504 C12.8657947,1.69740068 12.2160921,1.51919825 11.5444523,1.52340539 L3.9968431,1.52340539 L3.9968431,9.24771443 L12.8507692,9.24771443 L12.4159313,10.7643884 L3.9968431,10.7643884 L3.9968431,18.4950082 L11.9813938,18.4950082 C13.3288806,18.5166449 14.663145,17.7560541 14.663145,17.7560541 L14.6261823,17.9255417 L14.6415083,17.9255417 Z" id="Fill-11"></path>
                </g>
            </g>
        </g>
    </g>
</svg>